<?xml version="1.0" encoding="UTF-8" standalone="no" ?>
<!DOCTYPE svg PUBLIC "-//W3C//DTD SVG 1.1//EN" "http://www.w3.org/Graphics/SVG/1.1/DTD/svg11.dtd">
<svg xmlns="http://www.w3.org/2000/svg" xmlns:xlink="http://www.w3.org/1999/xlink" version="1.1" width="1080" height="1080" viewBox="0 0 1080 1080" xml:space="preserve">
<desc>Created with Fabric.js 5.2.4</desc>
<defs>
</defs>
<g transform="matrix(1 0 0 1 540 540)" id="d3e897a5-57b6-4f85-b35c-ec8630817c8d"  >
<rect style="stroke: none; stroke-width: 1; stroke-dasharray: none; stroke-linecap: butt; stroke-dashoffset: 0; stroke-linejoin: miter; stroke-miterlimit: 4; fill: rgb(255,255,255); fill-rule: nonzero; opacity: 1; visibility: hidden;" vector-effect="non-scaling-stroke"  x="-540" y="-540" rx="0" ry="0" width="1080" height="1080" />
</g>
<g transform="matrix(1 0 0 1 540 540)" id="a1547831-ae40-4203-8c76-2259fab559f3"  >
</g>
<g transform="matrix(1.1 0 0 1.1 540 458.61)"  >
<g style="" vector-effect="non-scaling-stroke"   >
		<g transform="matrix(0.13 0 0 -0.13 -231.49 -4.92)"  >
<path style="stroke: none; stroke-width: 1; stroke-dasharray: none; stroke-linecap: butt; stroke-dashoffset: 0; stroke-linejoin: miter; stroke-miterlimit: 4; fill: rgb(34,118,121); fill-rule: nonzero; opacity: 1;" vector-effect="non-scaling-stroke"  transform=" translate(-2220, -4224.13)" d="M 3380 5685 C 3366 5677 3322 5657 3282 5640 C 3072 5551 2766 5351 2540 5156 C 2493 5115 2223 4843 2186 4799 C 2170 4780 2132 4736 2102 4700 C 1971 4548 1769 4257 1663 4070 C 1543 3859 1370 3462 1333 3313 C 1318 3254 1300 3229 1300 3268 C 1300 3296 1201 3642 1182 3679 C 1161 3720 1070 3790 1037 3790 C 982 3790 950 3721 950 3605 C 950 3538 954 3521 1036 3226 C 1097 3010 1151 2859 1187 2804 C 1225 2745 1325 2731 1379 2776 C 1415 2806 1433 2863 1421 2906 C 1412 2939 1431 3097 1456 3194 C 1478 3278 1580 3558 1623 3650 C 1642 3691 1671 3754 1687 3790 C 1752 3932 1946 4252 2050 4389 C 2217 4606 2209 4596 2319 4725 C 2520 4961 2724 5152 2929 5295 C 3035 5369 3266 5498 3370 5541 C 3461 5578 3490 5601 3490 5633 C 3490 5691 3435 5717 3380 5685 z" stroke-linecap="round" />
</g>
		<g transform="matrix(0.13 0 0 -0.13 220.19 73.33)"  >
<path style="stroke: none; stroke-width: 1; stroke-dasharray: none; stroke-linecap: butt; stroke-dashoffset: 0; stroke-linejoin: miter; stroke-miterlimit: 4; fill: rgb(34,118,121); fill-rule: nonzero; opacity: 1;" vector-effect="non-scaling-stroke"  transform=" translate(-5595.53, -3652.19)" d="M 5556 4510 C 5539 4500 5521 4480 5514 4468 C 5499 4440 5460 4290 5460 4262 C 5460 4245 5445 4240 5323 4221 C 5248 4209 5110 4190 5016 4179 C 4922 4168 4837 4154 4827 4148 C 4814 4141 4810 4130 4812 4107 C 4817 4050 4837 4048 5090 4081 C 5214 4097 5344 4113 5379 4117 L 5443 4123 L 5437 4089 C 5433 4070 5424 3979 5415 3885 C 5406 3792 5395 3677 5389 3630 C 5384 3583 5376 3446 5373 3325 C 5368 3140 5370 3091 5384 3021 C 5414 2872 5466 2802 5562 2781 C 5630 2765 5693 2779 5823 2837 C 5872 2859 5880 2866 5880 2890 C 5880 2939 5858 2946 5787 2922 C 5753 2910 5715 2900 5702 2900 C 5658 2900 5623 2928 5603 2977 C 5587 3019 5585 3056 5586 3285 C 5586 3510 5590 3585 5619 3845 C 5638 4010 5655 4148 5659 4152 C 5665 4159 5939 4204 6135 4230 C 6289 4250 6333 4259 6357 4275 C 6382 4292 6386 4319 6370 4351 C 6354 4380 6303 4376 5977 4324 C 5819 4298 5687 4279 5685 4282 C 5683 4284 5685 4303 5690 4325 C 5695 4347 5700 4388 5700 4416 C 5700 4460 5695 4473 5671 4499 C 5637 4536 5599 4539 5556 4510 z" stroke-linecap="round" />
</g>
		<g transform="matrix(0.13 0 0 -0.13 -201.2 108.2)"  >
<path style="stroke: none; stroke-width: 1; stroke-dasharray: none; stroke-linecap: butt; stroke-dashoffset: 0; stroke-linejoin: miter; stroke-miterlimit: 4; fill: rgb(34,118,121); fill-rule: nonzero; opacity: 1;" vector-effect="non-scaling-stroke"  transform=" translate(-2418.73, -3396.98)" d="M 2366 3996 C 2346 3977 2341 3958 2336 3894 C 2332 3851 2325 3781 2320 3740 C 2287 3483 2275 3025 2299 2933 C 2333 2800 2437 2736 2526 2795 C 2555 2813 2560 2877 2535 2887 C 2526 2890 2510 2910 2499 2932 C 2481 2967 2479 2990 2480 3133 C 2480 3303 2493 3544 2510 3695 C 2515 3745 2520 3827 2520 3878 C 2520 3963 2518 3973 2495 3995 C 2462 4029 2399 4030 2366 3996 z" stroke-linecap="round" />
</g>
		<g transform="matrix(0.13 0 0 -0.13 -141.12 111.43)"  >
<path style="stroke: none; stroke-width: 1; stroke-dasharray: none; stroke-linecap: butt; stroke-dashoffset: 0; stroke-linejoin: miter; stroke-miterlimit: 4; fill: rgb(34,118,121); fill-rule: nonzero; opacity: 1;" vector-effect="non-scaling-stroke"  transform=" translate(-2870.33, -3373.03)" d="M 2755 3964 C 2741 3949 2729 3921 2726 3897 C 2700 3678 2690 3047 2711 2951 C 2731 2858 2780 2809 2891 2771 C 2947 2752 2955 2752 2988 2766 C 3070 2800 3056 2855 2952 2912 C 2902 2939 2895 3000 2909 3275 C 2916 3402 2924 3600 2927 3715 L 2933 3925 L 2906 3958 C 2881 3986 2872 3990 2829 3990 C 2788 3990 2775 3985 2755 3964 z" stroke-linecap="round" />
</g>
		<g transform="matrix(0.13 0 0 -0.13 -262.26 65.92)"  >
<path style="stroke: none; stroke-width: 1; stroke-dasharray: none; stroke-linecap: butt; stroke-dashoffset: 0; stroke-linejoin: miter; stroke-miterlimit: 4; fill: rgb(34,118,121); fill-rule: nonzero; opacity: 1;" vector-effect="non-scaling-stroke"  transform=" translate(-1960, -3727.2)" d="M 1924 3820 C 1894 3808 1860 3762 1860 3733 C 1860 3696 1887 3652 1921 3635 C 1981 3604 2060 3656 2060 3727 C 2060 3774 2044 3799 2005 3816 C 1966 3832 1954 3832 1924 3820 z" stroke-linecap="round" />
</g>
		<g transform="matrix(0.13 0 0 -0.13 334.81 125.44)"  >
<path style="stroke: none; stroke-width: 1; stroke-dasharray: none; stroke-linecap: butt; stroke-dashoffset: 0; stroke-linejoin: miter; stroke-miterlimit: 4; fill: rgb(34,118,121); fill-rule: nonzero; opacity: 1;" vector-effect="non-scaling-stroke"  transform=" translate(-6446.79, -3272.11)" d="M 6483 3682 C 6461 3662 6423 3621 6401 3592 L 6360 3538 L 6360 3594 C 6360 3637 6355 3655 6339 3671 C 6328 3682 6312 3689 6303 3686 C 6295 3683 6271 3677 6249 3674 C 6228 3670 6206 3662 6200 3655 C 6195 3649 6188 3554 6185 3443 L 6181 3242 L 6133 3162 C 6106 3118 6073 3060 6057 3033 C 6042 3007 6020 2971 6009 2953 C 5993 2928 5991 2917 6000 2901 C 6011 2880 6035 2874 6057 2888 C 6063 2892 6097 2945 6133 3005 C 6291 3271 6319 3317 6393 3433 C 6500 3600 6494 3596 6526 3524 C 6564 3438 6680 3067 6700 2965 C 6717 2883 6735 2851 6776 2834 C 6808 2820 6815 2821 6848 2837 C 6895 2860 6908 2894 6893 2958 C 6817 3301 6673 3671 6601 3709 C 6563 3730 6527 3721 6483 3682 z" stroke-linecap="round" />
</g>
		<g transform="matrix(0.13 0 0 -0.13 -49.57 134.88)"  >
<path style="stroke: none; stroke-width: 1; stroke-dasharray: none; stroke-linecap: butt; stroke-dashoffset: 0; stroke-linejoin: miter; stroke-miterlimit: 4; fill: rgb(34,118,121); fill-rule: nonzero; opacity: 1;" vector-effect="non-scaling-stroke"  transform=" translate(-3561.1, -3202.64)" d="M 3520 3581 C 3382 3537 3308 3466 3352 3422 C 3372 3402 3411 3409 3446 3439 C 3480 3470 3523 3486 3596 3496 C 3634 3502 3640 3500 3656 3475 C 3668 3457 3675 3422 3678 3366 L 3682 3285 L 3579 3285 C 3486 3284 3468 3281 3412 3255 C 3348 3226 3275 3158 3244 3098 C 3222 3056 3216 2979 3229 2937 C 3245 2890 3308 2836 3366 2820 C 3434 2801 3660 2803 3750 2824 C 3900 2858 3900 2858 3900 2889 C 3900 2937 3880 2945 3797 2931 C 3618 2901 3571 2897 3499 2908 C 3413 2921 3380 2946 3380 2997 C 3380 3040 3399 3077 3442 3116 C 3509 3178 3561 3197 3635 3185 L 3679 3179 L 3686 3112 C 3695 3026 3704 3002 3735 2988 C 3768 2973 3806 2990 3822 3027 C 3836 3063 3834 3374 3819 3450 C 3793 3575 3669 3629 3520 3581 z" stroke-linecap="round" />
</g>
		<g transform="matrix(0.13 0 0 -0.13 44.78 140.36)"  >
<path style="stroke: none; stroke-width: 1; stroke-dasharray: none; stroke-linecap: butt; stroke-dashoffset: 0; stroke-linejoin: miter; stroke-miterlimit: 4; fill: rgb(34,118,121); fill-rule: nonzero; opacity: 1;" vector-effect="non-scaling-stroke"  transform=" translate(-4268.26, -3161.25)" d="M 4013 3558 C 3966 3535 3950 3439 3951 3190 C 3952 2848 3965 2800 4054 2800 C 4077 2800 4102 2806 4111 2813 C 4148 2841 4151 2864 4144 3070 L 4137 3271 L 4171 3306 C 4206 3343 4264 3381 4313 3399 C 4340 3410 4342 3408 4365 3357 C 4393 3296 4407 3194 4420 2980 C 4424 2894 4434 2813 4440 2798 C 4456 2764 4500 2744 4528 2759 C 4539 2765 4557 2781 4568 2795 C 4587 2819 4588 2832 4583 2963 C 4581 3041 4572 3160 4564 3228 C 4548 3368 4524 3426 4464 3480 C 4428 3511 4424 3512 4361 3508 C 4296 3503 4232 3479 4181 3438 C 4152 3416 4140 3427 4140 3477 C 4140 3522 4131 3539 4099 3555 C 4067 3572 4044 3573 4013 3558 z" stroke-linecap="round" />
</g>
		<g transform="matrix(0.13 0 0 -0.13 135.35 140.31)"  >
<path style="stroke: none; stroke-width: 1; stroke-dasharray: none; stroke-linecap: butt; stroke-dashoffset: 0; stroke-linejoin: miter; stroke-miterlimit: 4; fill: rgb(34,118,121); fill-rule: nonzero; opacity: 1;" vector-effect="non-scaling-stroke"  transform=" translate(-4946.84, -3162.28)" d="M 4920 3533 C 4733 3497 4655 3390 4655 3170 C 4655 3074 4658 3058 4689 2982 C 4746 2841 4848 2770 4973 2783 C 5030 2789 5194 2869 5204 2895 C 5207 2904 5204 2921 5198 2935 C 5184 2967 5151 2967 5102 2936 C 5082 2924 5055 2910 5043 2906 C 5013 2896 4959 2921 4925 2961 C 4890 3003 4850 3087 4850 3120 L 4850 3145 L 4987 3142 C 5063 3141 5130 3143 5135 3147 C 5161 3166 5212 3242 5225 3280 C 5265 3393 5215 3495 5105 3525 C 5023 3547 4999 3548 4920 3533 z M 5122 3408 C 5147 3381 5151 3371 5145 3341 C 5132 3269 5119 3260 5031 3260 C 4932 3260 4860 3270 4860 3283 C 4860 3306 4903 3381 4923 3391 C 4946 3404 5057 3438 5078 3439 C 5086 3440 5105 3426 5122 3408 z" stroke-linecap="round" />
</g>
		<g transform="matrix(0.13 0 0 -0.13 -260.46 141.85)"  >
<path style="stroke: none; stroke-width: 1; stroke-dasharray: none; stroke-linecap: butt; stroke-dashoffset: 0; stroke-linejoin: miter; stroke-miterlimit: 4; fill: rgb(34,118,121); fill-rule: nonzero; opacity: 1;" vector-effect="non-scaling-stroke"  transform=" translate(-1973.45, -3151.5)" d="M 1932 3493 C 1925 3490 1912 3474 1903 3457 C 1878 3408 1866 2910 1889 2860 C 1911 2812 1951 2794 2001 2809 C 2070 2830 2071 2833 2070 3149 C 2070 3488 2066 3501 1977 3499 C 1959 3499 1939 3496 1932 3493 z" stroke-linecap="round" />
</g>
		<g transform="matrix(0.13 0 0 -0.13 330.3 162.17)"  >
<path style="stroke: none; stroke-width: 1; stroke-dasharray: none; stroke-linecap: butt; stroke-dashoffset: 0; stroke-linejoin: miter; stroke-miterlimit: 4; fill: rgb(34,118,121); fill-rule: nonzero; opacity: 1;" vector-effect="non-scaling-stroke"  transform=" translate(-6405.03, -3003.22)" d="M 6362 3173 C 6310 3155 6295 3133 6281 3056 C 6263 2955 6266 2922 6299 2889 C 6315 2873 6335 2860 6343 2860 C 6351 2860 6363 2853 6370 2845 C 6389 2822 6446 2810 6481 2822 C 6529 2838 6540 2874 6540 3005 C 6540 3125 6528 3171 6495 3184 C 6469 3194 6408 3189 6362 3173 z" stroke-linecap="round" />
</g>
</g>
</g>
</svg>