<?xml version="1.0" standalone="no"?>
<!DOCTYPE svg PUBLIC "-//W3C//DTD SVG 20010904//EN"
 "http://www.w3.org/TR/2001/REC-SVG-20010904/DTD/svg10.dtd">
<svg version="1.0" xmlns="http://www.w3.org/2000/svg"
 width="754.000000pt" height="719.000000pt" viewBox="0 0 754.000000 719.000000"
 preserveAspectRatio="xMidYMid meet">

<g transform="translate(0.000000,719.000000) scale(0.100000,-0.100000)"
fill="#000000" stroke="none">
<path d="M3380 5685 c-14 -8 -58 -28 -98 -45 -210 -89 -516 -289 -742 -484
-47 -41 -317 -313 -354 -357 -16 -19 -54 -63 -84 -99 -131 -152 -333 -443
-439 -630 -120 -211 -293 -608 -330 -757 -15 -59 -33 -84 -33 -45 0 28 -99
374 -118 411 -21 41 -112 111 -145 111 -55 0 -87 -69 -87 -185 0 -67 4 -84 86
-379 61 -216 115 -367 151 -422 38 -59 138 -73 192 -28 36 30 54 87 42 130 -9
33 10 191 35 288 22 84 124 364 167 456 19 41 48 104 64 140 65 142 259 462
363 599 167 217 159 207 269 336 201 236 405 427 610 570 106 74 337 203 441
246 91 37 120 60 120 92 0 58 -55 84 -110 52z"/>
<path d="M5556 4510 c-17 -10 -35 -30 -42 -42 -15 -28 -54 -178 -54 -206 0
-17 -15 -22 -137 -41 -75 -12 -213 -31 -307 -42 -94 -11 -179 -25 -189 -31
-13 -7 -17 -18 -15 -41 5 -57 25 -59 278 -26 124 16 254 32 289 36 l64 6 -6
-34 c-4 -19 -13 -110 -22 -204 -9 -93 -20 -208 -26 -255 -5 -47 -13 -184 -16
-305 -5 -185 -3 -234 11 -304 30 -149 82 -219 178 -240 68 -16 131 -2 261 56
49 22 57 29 57 53 0 49 -22 56 -93 32 -34 -12 -72 -22 -85 -22 -44 0 -79 28
-99 77 -16 42 -18 79 -17 308 0 225 4 300 33 560 19 165 36 303 40 307 6 7
280 52 476 78 154 20 198 29 222 45 25 17 29 44 13 76 -16 29 -67 25 -393 -27
-158 -26 -290 -45 -292 -42 -2 2 0 21 5 43 5 22 10 63 10 91 0 44 -5 57 -29
83 -34 37 -72 40 -115 11z"/>
<path d="M2366 3996 c-20 -19 -25 -38 -30 -102 -4 -43 -11 -113 -16 -154 -33
-257 -45 -715 -21 -807 34 -133 138 -197 227 -138 29 18 34 82 9 92 -9 3 -25
23 -36 45 -18 35 -20 58 -19 201 0 170 13 411 30 562 5 50 10 132 10 183 0 85
-2 95 -25 117 -33 34 -96 35 -129 1z"/>
<path d="M2755 3964 c-14 -15 -26 -43 -29 -67 -26 -219 -36 -850 -15 -946 20
-93 69 -142 180 -180 56 -19 64 -19 97 -5 82 34 68 89 -36 146 -50 27 -57 88
-43 363 7 127 15 325 18 440 l6 210 -27 33 c-25 28 -34 32 -77 32 -41 0 -54
-5 -74 -26z"/>
<path d="M1924 3820 c-30 -12 -64 -58 -64 -87 0 -37 27 -81 61 -98 60 -31 139
21 139 92 0 47 -16 72 -55 89 -39 16 -51 16 -81 4z"/>
<path d="M6483 3682 c-22 -20 -60 -61 -82 -90 l-41 -54 0 56 c0 43 -5 61 -21
77 -11 11 -27 18 -36 15 -8 -3 -32 -9 -54 -12 -21 -4 -43 -12 -49 -19 -5 -6
-12 -101 -15 -212 l-4 -201 -48 -80 c-27 -44 -60 -102 -76 -129 -15 -26 -37
-62 -48 -80 -16 -25 -18 -36 -9 -52 11 -21 35 -27 57 -13 6 4 40 57 76 117
158 266 186 312 260 428 107 167 101 163 133 91 38 -86 154 -457 174 -559 17
-82 35 -114 76 -131 32 -14 39 -13 72 3 47 23 60 57 45 121 -76 343 -220 713
-292 751 -38 21 -74 12 -118 -27z"/>
<path d="M3520 3581 c-138 -44 -212 -115 -168 -159 20 -20 59 -13 94 17 34 31
77 47 150 57 38 6 44 4 60 -21 12 -18 19 -53 22 -109 l4 -81 -103 0 c-93 -1
-111 -4 -167 -30 -64 -29 -137 -97 -168 -157 -22 -42 -28 -119 -15 -161 16
-47 79 -101 137 -117 68 -19 294 -17 384 4 150 34 150 34 150 65 0 48 -20 56
-103 42 -179 -30 -226 -34 -298 -23 -86 13 -119 38 -119 89 0 43 19 80 62 119
67 62 119 81 193 69 l44 -6 7 -67 c9 -86 18 -110 49 -124 33 -15 71 2 87 39
14 36 12 347 -3 423 -26 125 -150 179 -299 131z"/>
<path d="M4013 3558 c-47 -23 -63 -119 -62 -368 1 -342 14 -390 103 -390 23 0
48 6 57 13 37 28 40 51 33 257 l-7 201 34 35 c35 37 93 75 142 93 27 11 29 9
52 -42 28 -61 42 -163 55 -377 4 -86 14 -167 20 -182 16 -34 60 -54 88 -39 11
6 29 22 40 36 19 24 20 37 15 168 -2 78 -11 197 -19 265 -16 140 -40 198 -100
252 -36 31 -40 32 -103 28 -65 -5 -129 -29 -180 -70 -29 -22 -41 -11 -41 39 0
45 -9 62 -41 78 -32 17 -55 18 -86 3z"/>
<path d="M4920 3533 c-187 -36 -265 -143 -265 -363 0 -96 3 -112 34 -188 57
-141 159 -212 284 -199 57 6 221 86 231 112 3 9 0 26 -6 40 -14 32 -47 32 -96
1 -20 -12 -47 -26 -59 -30 -30 -10 -84 15 -118 55 -35 42 -75 126 -75 159 l0
25 137 -3 c76 -1 143 1 148 5 26 19 77 95 90 133 40 113 -10 215 -120 245 -82
22 -106 23 -185 8z m202 -125 c25 -27 29 -37 23 -67 -13 -72 -26 -81 -114 -81
-99 0 -171 10 -171 23 0 23 43 98 63 108 23 13 134 47 155 48 8 1 27 -13 44
-31z"/>
<path d="M1932 3493 c-7 -3 -20 -19 -29 -36 -25 -49 -37 -547 -14 -597 22 -48
62 -66 112 -51 69 21 70 24 69 340 0 339 -4 352 -93 350 -18 0 -38 -3 -45 -6z"/>
<path d="M6362 3173 c-52 -18 -67 -40 -81 -117 -18 -101 -15 -134 18 -167 16
-16 36 -29 44 -29 8 0 20 -7 27 -15 19 -23 76 -35 111 -23 48 16 59 52 59 183
0 120 -12 166 -45 179 -26 10 -87 5 -133 -11z"/>
</g>
</svg>
